<svg width="19" height="19" viewBox="0 0 19 19" fill="none" xmlns="http://www.w3.org/2000/svg">
<path d="M13.3594 0.25H5C3.64583 0.25 2.47396 0.738281 1.48438 1.71484C0.494792 2.69141 0 3.86979 0 5.25V13.5703C0 14.9505 0.494792 16.1289 1.48438 17.1055C2.47396 18.082 3.64583 18.5703 5 18.5703H13.3594C14.7135 18.5703 15.8854 18.082 16.875 17.1055C17.8646 16.1289 18.3594 14.9505 18.3594 13.5703V5.25C18.3594 3.86979 17.8646 2.69141 16.875 1.71484C15.8854 0.738281 14.7135 0.25 13.3594 0.25ZM16.6797 13.5703C16.6797 14.5078 16.3542 15.3021 15.7031 15.9531C15.0521 16.6042 14.2708 16.9297 13.3594 16.9297H5C4.08854 16.9297 3.30729 16.6042 2.65625 15.9531C2.00521 15.3021 1.67969 14.5078 1.67969 13.5703V5.25C1.67969 4.33854 2.00521 3.55729 2.65625 2.90625C3.30729 2.25521 4.08854 1.92969 5 1.92969H13.3594C14.2708 1.92969 15.0521 2.25521 15.7031 2.90625C16.3542 3.55729 16.6797 4.33854 16.6797 5.25V13.5703ZM9.84375 5.25C9.63542 5.19792 9.42708 5.17188 9.21875 5.17188C9.01042 5.17188 8.80208 5.19792 8.59375 5.25C7.47396 5.40625 6.56901 5.95312 5.87891 6.89062C5.1888 7.82812 4.92188 8.86979 5.07812 10.0156C5.18229 10.5365 5.3776 11.0378 5.66406 11.5195C5.95052 12.0013 6.3151 12.4115 6.75781 12.75C7.14844 13.0104 7.55208 13.2122 7.96875 13.3555C8.38542 13.4987 8.8151 13.5703 9.25781 13.5703C9.33594 13.5703 9.43359 13.5703 9.55078 13.5703C9.66797 13.5703 9.76562 13.5443 9.84375 13.4922C10.3906 13.4141 10.9049 13.2318 11.3867 12.9453C11.8685 12.6589 12.2656 12.2943 12.5781 11.8516C12.9167 11.3828 13.151 10.8815 13.2812 10.3477C13.4115 9.8138 13.4375 9.28646 13.3594 8.76562C13.2292 7.82812 12.8385 7.04036 12.1875 6.40234C11.5365 5.76432 10.7552 5.38021 9.84375 5.25ZM11.25 10.8359C11.0417 11.0964 10.7943 11.3177 10.5078 11.5C10.2214 11.6823 9.92188 11.7995 9.60938 11.8516C8.93229 11.9297 8.30729 11.7669 7.73438 11.3633C7.16146 10.9596 6.83594 10.4193 6.75781 9.74219C6.6276 9.09115 6.77734 8.47917 7.20703 7.90625C7.63672 7.33333 8.17708 7.00781 8.82812 6.92969C8.88021 6.92969 8.9388 6.92969 9.00391 6.92969C9.06901 6.92969 9.1276 6.92969 9.17969 6.92969C9.23177 6.92969 9.29036 6.92969 9.35547 6.92969C9.42057 6.92969 9.47917 6.92969 9.53125 6.92969C10.0521 7.00781 10.5078 7.23568 10.8984 7.61328C11.2891 7.99089 11.5234 8.45312 11.6016 9C11.6797 9.33854 11.6862 9.66406 11.6211 9.97656C11.556 10.2891 11.4323 10.5755 11.25 10.8359ZM13.1641 4.23438C13.0859 4.33854 13.0273 4.4362 12.9883 4.52734C12.9492 4.61849 12.9297 4.71615 12.9297 4.82031C12.9297 4.95052 12.9492 5.0612 12.9883 5.15234C13.0273 5.24349 13.0859 5.32812 13.1641 5.40625C13.2682 5.48438 13.3724 5.54948 13.4766 5.60156C13.5807 5.65365 13.6719 5.67969 13.75 5.67969C13.8802 5.67969 13.9909 5.65365 14.082 5.60156C14.1732 5.54948 14.2578 5.48438 14.3359 5.40625C14.4141 5.32812 14.4792 5.23698 14.5312 5.13281C14.5833 5.02865 14.6094 4.92448 14.6094 4.82031C14.6094 4.71615 14.5833 4.61849 14.5312 4.52734C14.4792 4.4362 14.4141 4.33854 14.3359 4.23438C14.1797 4.07812 13.9909 4 13.7695 4C13.5482 4 13.3464 4.07812 13.1641 4.23438Z" fill="#895D2D"/>
</svg>
